<svg data-name="Layer 1" xmlns="http://www.w3.org/2000/svg" viewBox="0 0 409.64 409.64"><path d="M0,98.41V36.8C5.58,23.23,9.67,20.53,24.7,20.53q26.13,0,52.26,0h4.65V0H328V20.53h4.64c18.09,0,36.18-.13,54.26.1a36.87,36.87,0,0,1,12,2.16c6.31,2.31,8.8,8.06,10.71,14V98.41a29.23,29.23,0,0,0-.77,3c-5.93,42-36,73.12-77.62,80.15-2.57.44-3.44,1.36-3.67,4-.74,8.47-1.07,17.09-2.93,25.34-8.91,39.36-31.72,68-68.1,85.49-7.83,3.77-16.3,6.22-24.86,9.42q6.9,20.77,14.06,42.27h4.51c13.46,0,26.92,0,40.38,0,10.66,0,17.28,4.73,20.76,14.72q6.45,18.47,12.83,36.94c1.12,3.24,2,6.56,3,9.85H82.41a3.6,3.6,0,0,1,0-1.18c5.61-16.21,11.06-32.49,17-48.59,2.18-5.95,7-9.68,13.3-11a47.22,47.22,0,0,1,9.52-.71c13.85-.07,27.69,0,41.69,0L178,305.77c-.51-.48-.67-.75-.89-.82-1.14-.35-2.3-.65-3.45-1q-52.69-14.62-78.1-63A119.39,119.39,0,0,1,82.1,186.4c0-3.36-1.3-4.3-4.5-4.94-35.76-7.19-60.46-27.58-72.71-62.19C2.52,112.58,1.59,105.38,0,98.41Zm266.21,24.53c-13.83,0-26.61-.09-39.4.07-2.71,0-4-.85-5.07-3.27-5-11.34-10.1-22.6-15.19-33.88-.46-1-1-2-1.81-3.37-.92,1.85-1.6,3.12-2.18,4.43-4.92,10.92-9.87,21.82-14.66,32.8-1.05,2.41-2.33,3.33-5.06,3.29-11.46-.17-22.92-.08-34.38-.06-1.39,0-2.78.13-4.69.22,1.1,1.56,1.81,2.64,2.59,3.68,8.46,11.31,16.88,22.65,25.45,33.87a7.2,7.2,0,0,1,1.38,6.94c-3.16,12.06-6.08,24.18-9.25,37,1.77-.91,2.92-1.48,4-2.09,11.33-6.21,22.68-12.36,33.94-18.69a5.07,5.07,0,0,1,5.78,0c10.08,5.7,20.27,11.22,30.42,16.79,2.29,1.26,4.62,2.47,7.38,3.94-.16-1.05-.2-1.55-.32-2-2.92-11.75-6-23.47-8.67-35.27a8.67,8.67,0,0,1,1.22-6.09c3.81-5.62,8.05-10.95,12.12-16.38ZM328,61.68v79.43c1.7-.39,3.13-.57,4.46-1,16.63-5.71,27.77-17.13,33.15-33.64,2.1-6.45,2.6-13.54,3-20.39.5-8,.12-16.15.12-24.37ZM81.58,141V61.81H40.9c0,8.65.09,17,0,25.37-.17,12.7,3.4,24.15,11.25,34.15A55.28,55.28,0,0,0,81.58,141Z"></path></svg>