<svg data-name="Layer 1" xmlns="http://www.w3.org/2000/svg" viewBox="0 0 372.12 396.03"><path d="M370.43,0H372q0,67.4,0,134.8c0,48.13.13,96.26,0,144.39-.15,42.61-34.59,75-76.53,72.25a71.27,71.27,0,0,1-65.93-81.9c4.09-26.63,19-45.65,43.77-55.77,25.61-10.44,49.86-6.43,71.91,10.38.76.58,1.6,1.08,2.64,1.77v-117c-1.46.3-2.75.51-4,.84q-101.61,25.77-203.2,51.56c-6.11,1.55-6.1,1.58-6.1,8,0,55.46-.08,110.93,0,166.39,0,17.59-4.82,33.42-16,47.05-3.91,4.78-8.67,8.87-13,13.27H20.8c-8.53-6.29-15.21-14.26-20.8-23.2v-70.4a25,25,0,0,0,2.19-2.67C20.84,269.92,59,257.92,91.11,272.12c6.7,3,12.83,7.23,19.36,11V66.49c1.73-.52,3.23-1,4.76-1.41Q227.84,36.53,340.46,8C350.48,5.46,360.44,2.67,370.43,0Z"></path></svg>