<svg data-name="Layer 1" xmlns="http://www.w3.org/2000/svg" viewBox="0 0 56.99 69.46"><path d="M0,43.44v-1c4.24-4.84,9-9.13,15.64-9.91,2.81-.32,3.89-1.41,4.86-3.9C26.62,13,39.59,5.47,55.05,0c3.42,16,3.05,30.87-7.24,44.08-1.56,2-2.27,3.49-1.17,6.17,2.69,6.53,1.78,13-1.54,19.21h-1L33,56.58c-7.34,3.23-13.66.22-15.68-6.68a4.81,4.81,0,0,0-2.85-2.68C9.71,45.79,4.84,44.67,0,43.44ZM39.55,31.79c4.33.13,7.69-2.85,7.39-6.39-.32-3.78-2.43-6.25-6.45-6.23s-6.33,2.11-6.42,6.12S36.28,31.35,39.55,31.79Z"></path></svg>