<svg data-name="Layer 1" xmlns="http://www.w3.org/2000/svg" viewBox="0 0 261.58 393.53"><path d="M99.27,393.53c-2.63-1.26-5.49-2.18-7.84-3.83C85,385.18,83,378.64,83,371q.14-114.89.13-229.78A12.33,12.33,0,0,0,80,132.6q-37.2-44-74.22-88.18C-3,34-1.6,20.69,9,13.75,17.47,8.23,28.11,10,35.24,18.26c6.6,7.66,13,15.47,19.54,23.22,15.4,18.34,30.89,36.6,46.15,55.06,4.62,5.59,10.09,8.22,17.33,8,8.45-.27,16.92-.25,25.36,0,7.12.21,12.44-2.5,17-7.94q32.46-39,65.2-77.69c7.31-8.69,17.74-10.75,26.4-5.38,10.64,6.6,12.54,20.05,4.13,30.28-7.89,9.59-15.94,19.05-23.93,28.57C215.2,92.87,198,113.34,180.88,134a11,11,0,0,0-2.28,6.47c-.11,76-.24,151.91.05,227.86,0,12.57-4,21.32-16.36,25.25h-7.68c-12.68-4.26-16.29-13.62-16.16-26.24.4-36.08.14-72.17.14-108.25v-4.4H123v4.79q0,55.85,0,111.71c0,9.05-3.14,16.21-11.56,20.42-1.45.73-3,1.32-4.47,2Z"></path><path d="M136.16,0c7.89,1.81,15.4,4.41,21.85,9.6A43.4,43.4,0,1,1,87.54,41.15C88.75,20.5,103.15,4.36,123.65.66A9.79,9.79,0,0,0,125.4,0Z"></path></svg>