<svg data-name="Layer 1" xmlns="http://www.w3.org/2000/svg" viewBox="0 0 708.98 990.01"><defs><style>.cls-1{stroke:#000;stroke-miterlimit:10;stroke-width:10px;}</style></defs><path class="cls-1" d="M34.72,11C22.15,17.36,11.07,31.21,7.24,45.06c-3,10.87-3,889,0,899.9,3.83,13.85,14.91,27.7,27.48,34.09L46,985H663l11.29-6c12.57-6.39,23.65-20.24,27.48-34.09,3-10.87,3-889,0-899.9-3.83-13.85-14.91-27.7-27.48-34.09L663,5H46ZM655.1,49.74c4,2.34,4,9.37,4,445.26s0,442.92-4,445.26c-5.75,3-595.45,3-601.21,0-4-2.34-4-9.38-4-445.26,0-419.48.21-443.13,3.83-445C58.8,47,649.35,46.76,655.1,49.74Z"></path><path class="cls-1" d="M340.65,70.4c-26.43,3.2-49,14.49-69.45,34.73-24.93,24.5-36,50.49-36,84.58,0,52.62,33,97.15,85.22,114.83,8.52,3,17.9,4,34.09,4,34.09,0,60.29-10.65,83.94-34.09a119,119,0,0,0,35.37-85.22c0-34.09-12.14-62.21-37.07-85.64C410.1,78.07,375.16,66.14,340.65,70.4ZM385,119.62c23.22,10.44,42.4,36.64,45.38,62.42,2.55,22.79-9.16,51.77-26.63,65.62-17.47,13.63-24.93,16.19-49.21,16.19s-31.74-2.56-49.21-16.19c-17.48-13.85-29.19-42.82-26.63-65.83,3.41-29.19,25.35-56.24,53-65.19C344.7,112.37,372.17,113.87,385,119.62Z"></path><path class="cls-1" d="M317.22,366.32c-17,2.77-43,10-59.65,16.62C113.76,440.89,51.13,609.4,122.5,746.6c28.33,54.33,77.55,99.06,133.15,121.44,30.89,12.36,54.11,17.26,89.26,18.32,47.93,1.7,85-6.18,125.27-26.2,73.5-36.64,123.35-101.62,141.25-183.43,5.12-23.22,5.12-78.61,0-101.41-22.58-101.84-93.1-176.19-193-203.24-17.47-4.69-25.35-5.54-57.52-6C340.44,365.68,320.84,365.9,317.22,366.32Zm91.6,48.58A216.58,216.58,0,0,1,549.43,530.16c17.68,36.22,21.3,52.2,21.3,95.87,0,31.11-.85,38.78-4.9,54.33-24.07,88.41-97.57,151.69-188.54,162.12C288,852.92,199.61,803.92,159.56,721.9c-17.9-36.43-21.3-52-21.09-96.93,0-44.74,3.2-58.8,20.88-94.8,31.1-63.27,87.56-105.88,158.29-119.3C342.35,406.16,381.77,407.87,408.82,414.9Z"></path><path class="cls-1" d="M333.82,530.15c-37.07,8.1-67.52,38.77-75.41,75.84-4.05,19.17-1.29,42.18,7.24,60.5,17.26,36.43,49.21,56.67,88.84,56.67,73.71,0,119.73-75,87.35-142.1-12.36-25.35-42.83-47.29-72.44-52C352.37,526.53,350.45,526.53,333.82,530.15Zm43.05,46.66c20,9.16,31.53,27.48,31.53,49.21-.21,21.09-9.16,36.43-28.13,47.51-8.31,4.9-12.13,5.75-25.77,5.75-18.75-.21-29.4-4.69-40.48-17.26-9.8-11.08-13.42-21.09-13.42-36s3.62-24.93,13.64-36.22C329.57,572.33,355.77,566.8,376.87,576.81Z"></path></svg>