<svg data-name="Layer 1" xmlns="http://www.w3.org/2000/svg" viewBox="0 0 980 980"><path d="M490,980C219.8,980,0,760.2,0,490S219.8,0,490,0,980,219.8,980,490,760.2,980,490,980Zm0-919.3C253.3,60.7,60.7,253.3,60.7,490S253.3,919.3,490,919.3,919.3,726.7,919.3,490,726.7,60.7,490,60.7Z"></path><path d="M490,604.2A114.2,114.2,0,1,1,604.2,490,114.29,114.29,0,0,1,490,604.2Zm0-167.7a53.4,53.4,0,1,0,53.4,53.4A53.45,53.45,0,0,0,490,436.5Z"></path><path d="M135.4,524.8c-8.1,0-14.8-7.8-15.2-15.9-.3-5.8-.4-12.3-.4-18.2A15.45,15.45,0,0,1,135,475.2a15,15,0,0,1,15.2,15c0,5.4.1,12.1.4,17.4.4,8.4-6.1,17.2-14.5,17.2Z"></path><path d="M315.2,814.2a14.82,14.82,0,0,1-7.5-2c-97.1-55.1-163.6-149.5-182.5-259.1a15.17,15.17,0,0,1,29.9-5.1c17.3,100.6,78.4,187.2,167.6,237.8a15.2,15.2,0,0,1-7.5,28.4Z"></path><path d="M293.4,690a15.06,15.06,0,0,1-10.8-4.5,242.21,242.21,0,0,1-69.9-170.8,15.2,15.2,0,1,1,30.4,0,211.93,211.93,0,0,0,61.2,149.5,15.18,15.18,0,0,1-.2,21.5A15.38,15.38,0,0,1,293.4,690Z"></path><path d="M343.8,728.8a15.9,15.9,0,0,1-7.5-2c-4.9-2.8-9.7-5.7-14.4-8.9a15.17,15.17,0,1,1,16.9-25.2c4.1,2.7,8.3,5.3,12.6,7.7a15.2,15.2,0,0,1,5.7,20.7A15.48,15.48,0,0,1,343.8,728.8Z"></path><path d="M364.3,640.2a14.82,14.82,0,0,1-7.5-2,122.62,122.62,0,0,1-62.1-106.5,15.2,15.2,0,0,1,30.4,0,92.2,92.2,0,0,0,46.7,80.1,15.2,15.2,0,0,1-7.5,28.4Z"></path><path d="M836.5,530.7a10.87,10.87,0,0,1-1.8-.1,15.2,15.2,0,0,1-13.3-16.9c14.3-121.5-38-241.9-136.4-314.1a15.13,15.13,0,1,1,17.9-24.4A371.28,371.28,0,0,1,851.5,517.4,15,15,0,0,1,836.5,530.7Z"></path><path d="M750.7,503.2a10.87,10.87,0,0,1-1.8-.1,15.2,15.2,0,0,1-13.3-16.9A214,214,0,0,0,650,289a15.13,15.13,0,1,1,17.9-24.4,244.41,244.41,0,0,1,97.8,225.2A15.13,15.13,0,0,1,750.7,503.2Z"></path><path d="M667.2,467.2a10.87,10.87,0,0,1-1.8-.1,15.2,15.2,0,0,1-13.3-16.9,92.16,92.16,0,0,0-36.9-85,15.13,15.13,0,1,1,17.9-24.4,122.62,122.62,0,0,1,49.1,113.1A15,15,0,0,1,667.2,467.2Z"></path></svg>