<svg data-name="Layer 1" xmlns="http://www.w3.org/2000/svg" viewBox="0 0 980 980"><path d="M238.2,770.2H154.3C69.2,770.2,0,701,0,615.9v-42c0-85.1,69.2-154.3,154.3-154.3h83.9A28.38,28.38,0,0,1,266.6,448V741.7A28.4,28.4,0,0,1,238.2,770.2ZM154.3,476.4a97.56,97.56,0,0,0-97.5,97.5v42a97.56,97.56,0,0,0,97.5,97.5h55.6v-237Z"></path><path d="M825.7,770.2H741.8a28.38,28.38,0,0,1-28.4-28.4V448a28.38,28.38,0,0,1,28.4-28.4h83.9c85.1,0,154.3,69.2,154.3,154.3v42C980,701,910.8,770.2,825.7,770.2Zm-55.5-56.8h55.5a97.56,97.56,0,0,0,97.5-97.5v-42a97.56,97.56,0,0,0-97.5-97.5H770.2Z"></path><path d="M115.7,482.7a28.42,28.42,0,0,1-28-23.9A333.57,333.57,0,0,1,84,406C83.9,182.2,266.1,0,490,0S896.1,182.2,896.1,406.1a334.91,334.91,0,0,1-3.7,52.7,28.4,28.4,0,0,1-56.1-8.9,283.31,283.31,0,0,0,3-43.8C839.3,213.5,682.6,56.8,490,56.8S140.7,213.5,140.7,406.1c0,17,.9,31,3,43.8a28.38,28.38,0,0,1-23.5,32.5A36.39,36.39,0,0,1,115.7,482.7Z"></path><path d="M490,980c-82.4,0-112.3-67.2-112.3-112.3S407.6,755.4,490,755.4s112.3,67.2,112.3,112.3a121.38,121.38,0,0,1-9.1,45.2C724.9,884.3,786.3,801.6,814.9,730a28.38,28.38,0,0,1,52.7,21.1C825.9,855.5,726.6,980,490,980Zm0-167.9c-52.9,0-55.6,46.3-55.6,55.5.2,12.9,4.8,55.6,55.6,55.6,52.9,0,55.6-46.3,55.6-55.6C545.4,854.8,540.7,812.1,490,812.1Z"></path></svg>